<?xml version="1.0" encoding="UTF-8" standalone="no"?>
<!DOCTYPE svg PUBLIC "-//W3C//DTD SVG 1.1//EN"
 "http://www.w3.org/Graphics/SVG/1.1/DTD/svg11.dtd">
<!-- Generated by graphviz version 2.38.0 (20140413.2041)
 -->
<!-- Title: dgp Pages: 1 -->
<svg width="1056pt" height="188pt"
 viewBox="0.00 0.00 1056.47 188.00" xmlns="http://www.w3.org/2000/svg" xmlns:xlink="http://www.w3.org/1999/xlink">
<g id="graph0" class="graph" transform="scale(1 1) rotate(0) translate(4 184)">
<title>dgp</title>
<polygon fill="white" stroke="none" points="-4,4 -4,-184 1052.47,-184 1052.47,4 -4,4"/>
<!-- car -->
<g id="node1" class="node"><title>car</title>
<g id="a_node1"><a xlink:title="Variables like miles and options, which account for the overalls car condition and extras">
<polygon fill="#ff4040" fill-opacity="0.439216" stroke="Black" points="975.754,-108 843.479,-108 843.479,-72 975.754,-72 975.754,-108"/>
<text text-anchor="middle" x="909.616" y="-87" font-family="Helvetica,sans-Serif" font-size="10.00">Change in miles &amp; options</text>
</a>
</g>
</g>
<!-- win -->
<g id="node4" class="node"><title>win</title>
<polygon fill="#ff4040" fill-opacity="0.439216" stroke="Black" points="680.202,-36 549.031,-36 549.031,-0 680.202,-0 680.202,-36"/>
<text text-anchor="middle" x="614.616" y="-21" font-family="Helvetica,sans-Serif" font-size="10.00">Change in our winning bid</text>
<text text-anchor="middle" x="614.616" y="-9" font-family="Helvetica,sans-Serif" font-size="10.00">biddy1</text>
</g>
<!-- car&#45;&gt;win -->
<g id="edge1" class="edge"><title>car&#45;&gt;win</title>
<path fill="none" stroke="black" d="M843.413,-73.2906C797.976,-62.5089 737.571,-48.1755 690.237,-36.9438"/>
<polygon fill="black" stroke="black" points="690.883,-33.5 680.345,-34.5966 689.267,-40.3109 690.883,-33.5"/>
</g>
<!-- lis -->
<g id="node2" class="node"><title>lis</title>
<g id="a_node2"><a xlink:title="Variables like sellfdback and negative feedback percentage">
<polygon fill="#ff4040" fill-opacity="0.439216" stroke="Black" points="297.199,-108 186.034,-108 186.034,-72 297.199,-72 297.199,-108"/>
<text text-anchor="middle" x="241.616" y="-93" font-family="Helvetica,sans-Serif" font-size="10.00">Change in sellfdback,</text>
<text text-anchor="middle" x="241.616" y="-81" font-family="Helvetica,sans-Serif" font-size="10.00">negpct</text>
</a>
</g>
</g>
<!-- lis&#45;&gt;win -->
<g id="edge4" class="edge"><title>lis&#45;&gt;win</title>
<path fill="none" stroke="black" d="M297.458,-78.5203C361.706,-66.4631 467.527,-46.6039 539.09,-33.1739"/>
<polygon fill="black" stroke="black" points="539.77,-36.6075 548.952,-31.323 538.478,-29.7276 539.77,-36.6075"/>
</g>
<!-- fix -->
<g id="node3" class="node"><title>fix</title>
<g id="a_node3"><a xlink:title="Fixed effects for our carmodel, seller and year and week to control for seasonal demands">
<polygon fill="#ff4040" fill-opacity="0.439216" stroke="Black" points="520.407,-108 446.826,-108 446.826,-72 520.407,-72 520.407,-108"/>
<text text-anchor="middle" x="483.616" y="-87" font-family="Helvetica,sans-Serif" font-size="10.00">Fixed Effects</text>
</a>
</g>
</g>
<!-- fix&#45;&gt;win -->
<g id="edge3" class="edge"><title>fix&#45;&gt;win</title>
<path fill="none" stroke="black" d="M515.663,-71.8761C533.108,-62.5541 554.882,-50.9194 573.559,-40.939"/>
<polygon fill="black" stroke="black" points="575.277,-43.9896 582.447,-36.1898 571.978,-37.8157 575.277,-43.9896"/>
</g>
<!-- aod -->
<g id="node5" class="node"><title>aod</title>
<g id="a_node5"><a xlink:title="Remember the amount of photos is our proxy for the degree of disclosure">
<polygon fill="#ff4040" fill-opacity="0.439216" stroke="Black" points="736.982,-108 642.251,-108 642.251,-72 736.982,-72 736.982,-108"/>
<text text-anchor="middle" x="689.616" y="-87" font-family="Helvetica,sans-Serif" font-size="10.00">Change in photos</text>
</a>
</g>
</g>
<!-- aod&#45;&gt;win -->
<g id="edge2" class="edge"><title>aod&#45;&gt;win</title>
<path fill="none" stroke="black" d="M671.077,-71.6966C661.813,-63.0503 650.454,-52.4486 640.36,-43.027"/>
<polygon fill="black" stroke="black" points="642.641,-40.3688 632.943,-36.1043 637.865,-45.4863 642.641,-40.3688"/>
</g>
<!-- rcar -->
<g id="node6" class="node"><title>rcar</title>
<path fill="#00cdcd" fill-opacity="0.250980" stroke="Black" stroke-dasharray="5,2" d="M1036.32,-180C1036.32,-180 892.914,-180 892.914,-180 886.914,-180 880.914,-174 880.914,-168 880.914,-168 880.914,-156 880.914,-156 880.914,-150 886.914,-144 892.914,-144 892.914,-144 1036.32,-144 1036.32,-144 1042.32,-144 1048.32,-150 1048.32,-156 1048.32,-156 1048.32,-168 1048.32,-168 1048.32,-174 1042.32,-180 1036.32,-180"/>
<text text-anchor="middle" x="964.616" y="-159" font-family="Helvetica,sans-Serif" font-size="10.00">Condition of the car &amp; accessories</text>
</g>
<!-- rcar&#45;&gt;car -->
<g id="edge9" class="edge"><title>rcar&#45;&gt;car</title>
<path fill="none" stroke="black" stroke-dasharray="5,2" d="M951.021,-143.697C944.494,-135.389 936.548,-125.277 929.37,-116.141"/>
<polygon fill="black" stroke="black" points="931.986,-113.805 923.056,-108.104 926.482,-118.13 931.986,-113.805"/>
</g>
<!-- rlis -->
<g id="node7" class="node"><title>rlis</title>
<path fill="#00cdcd" fill-opacity="0.250980" stroke="Black" stroke-dasharray="5,2" d="M141.35,-180C141.35,-180 11.8833,-180 11.8833,-180 5.88332,-180 -0.116677,-174 -0.116677,-168 -0.116677,-168 -0.116677,-156 -0.116677,-156 -0.116677,-150 5.88332,-144 11.8833,-144 11.8833,-144 141.35,-144 141.35,-144 147.35,-144 153.35,-150 153.35,-156 153.35,-156 153.35,-168 153.35,-168 153.35,-174 147.35,-180 141.35,-180"/>
<text text-anchor="middle" x="76.6165" y="-159" font-family="Helvetica,sans-Serif" font-size="10.00">Additional seller characteristics</text>
</g>
<!-- rlis&#45;&gt;lis -->
<g id="edge5" class="edge"><title>rlis&#45;&gt;lis</title>
<path fill="none" stroke="black" stroke-dasharray="5,2" d="M116.98,-143.876C139.637,-134.264 168.089,-122.193 192.087,-112.013"/>
<polygon fill="black" stroke="black" points="193.545,-115.196 201.384,-108.068 190.811,-108.752 193.545,-115.196"/>
</g>
<!-- rfix1 -->
<g id="node8" class="node"><title>rfix1</title>
<path fill="#00cdcd" fill-opacity="0.250980" stroke="Black" stroke-dasharray="5,2" d="M309.552,-180C309.552,-180 183.681,-180 183.681,-180 177.681,-180 171.681,-174 171.681,-168 171.681,-168 171.681,-156 171.681,-156 171.681,-150 177.681,-144 183.681,-144 183.681,-144 309.552,-144 309.552,-144 315.552,-144 321.552,-150 321.552,-156 321.552,-156 321.552,-168 321.552,-168 321.552,-174 315.552,-180 309.552,-180"/>
<text text-anchor="middle" x="246.616" y="-159" font-family="Helvetica,sans-Serif" font-size="10.00">Seasonal demand fluctuations</text>
</g>
<!-- rfix1&#45;&gt;fix -->
<g id="edge6" class="edge"><title>rfix1&#45;&gt;fix</title>
<path fill="none" stroke="black" stroke-dasharray="5,2" d="M304.29,-143.966C345.042,-131.929 398.961,-116.004 436.999,-104.769"/>
<polygon fill="black" stroke="black" points="438.196,-108.065 446.795,-101.876 436.213,-101.352 438.196,-108.065"/>
</g>
<!-- rfix2 -->
<g id="node9" class="node"><title>rfix2</title>
<path fill="#00cdcd" fill-opacity="0.250980" stroke="Black" stroke-dasharray="5,2" d="M415.91,-180C415.91,-180 351.323,-180 351.323,-180 345.323,-180 339.323,-174 339.323,-168 339.323,-168 339.323,-156 339.323,-156 339.323,-150 345.323,-144 351.323,-144 351.323,-144 415.91,-144 415.91,-144 421.91,-144 427.91,-150 427.91,-156 427.91,-156 427.91,-168 427.91,-168 427.91,-174 421.91,-180 415.91,-180"/>
<text text-anchor="middle" x="383.616" y="-159" font-family="Helvetica,sans-Serif" font-size="10.00">Seller reputation</text>
</g>
<!-- rfix2&#45;&gt;fix -->
<g id="edge7" class="edge"><title>rfix2&#45;&gt;fix</title>
<path fill="none" stroke="black" stroke-dasharray="5,2" d="M408.079,-143.876C420.912,-134.893 436.813,-123.763 450.711,-114.034"/>
<polygon fill="black" stroke="black" points="452.875,-116.792 459.06,-108.19 448.86,-111.057 452.875,-116.792"/>
</g>
<!-- rfix3 -->
<g id="node10" class="node"><title>rfix3</title>
<path fill="#00cdcd" fill-opacity="0.250980" stroke="Black" stroke-dasharray="5,2" d="M577.354,-180C577.354,-180 457.879,-180 457.879,-180 451.879,-180 445.879,-174 445.879,-168 445.879,-168 445.879,-156 445.879,-156 445.879,-150 451.879,-144 457.879,-144 457.879,-144 577.354,-144 577.354,-144 583.354,-144 589.354,-150 589.354,-156 589.354,-156 589.354,-168 589.354,-168 589.354,-174 583.354,-180 577.354,-180"/>
<text text-anchor="middle" x="517.616" y="-159" font-family="Helvetica,sans-Serif" font-size="10.00">Carmodel specific influences</text>
</g>
<!-- rfix3&#45;&gt;fix -->
<g id="edge8" class="edge"><title>rfix3&#45;&gt;fix</title>
<path fill="none" stroke="black" stroke-dasharray="5,2" d="M509.212,-143.697C505.342,-135.728 500.665,-126.1 496.373,-117.264"/>
<polygon fill="black" stroke="black" points="499.442,-115.57 491.924,-108.104 493.145,-118.629 499.442,-115.57"/>
</g>
<!-- ot -->
<g id="node11" class="node"><title>ot</title>
<path fill="#00cdcd" fill-opacity="0.250980" stroke="Black" stroke-dasharray="5,2" d="M691.643,-180C691.643,-180 619.59,-180 619.59,-180 613.59,-180 607.59,-174 607.59,-168 607.59,-168 607.59,-156 607.59,-156 607.59,-150 613.59,-144 619.59,-144 619.59,-144 691.643,-144 691.643,-144 697.643,-144 703.643,-150 703.643,-156 703.643,-156 703.643,-168 703.643,-168 703.643,-174 697.643,-180 691.643,-180"/>
<text text-anchor="middle" x="655.616" y="-165" font-family="Helvetica,sans-Serif" font-size="10.00">Other unobserved</text>
<text text-anchor="middle" x="655.616" y="-153" font-family="Helvetica,sans-Serif" font-size="10.00">factors</text>
</g>
<!-- ot&#45;&gt;win -->
<g id="edge10" class="edge"><title>ot&#45;&gt;win</title>
<path fill="none" stroke="black" stroke-dasharray="5,2" d="M647.46,-143.632C642.908,-133.425 637.408,-120.175 633.616,-108 627.285,-87.667 622.353,-64.0726 619.103,-46.288"/>
<polygon fill="black" stroke="black" points="622.526,-45.5423 617.342,-36.3019 615.632,-46.7578 622.526,-45.5423"/>
</g>
<!-- ot&#45;&gt;aod -->
<g id="edge11" class="edge"><title>ot&#45;&gt;aod</title>
<path fill="none" stroke="black" stroke-dasharray="5,2" d="M664.021,-143.697C667.891,-135.728 672.568,-126.1 676.86,-117.264"/>
<polygon fill="black" stroke="black" points="680.088,-118.629 681.309,-108.104 673.791,-115.57 680.088,-118.629"/>
</g>
<!-- raod -->
<g id="node12" class="node"><title>raod</title>
<path fill="#00cdcd" fill-opacity="0.250980" stroke="Black" stroke-dasharray="5,2" d="M851.133,-180C851.133,-180 734.1,-180 734.1,-180 728.1,-180 722.1,-174 722.1,-168 722.1,-168 722.1,-156 722.1,-156 722.1,-150 728.1,-144 734.1,-144 734.1,-144 851.133,-144 851.133,-144 857.133,-144 863.133,-150 863.133,-156 863.133,-156 863.133,-168 863.133,-168 863.133,-174 857.133,-180 851.133,-180"/>
<text text-anchor="middle" x="792.616" y="-159" font-family="Helvetica,sans-Serif" font-size="10.00">Degree of Online Disclosure</text>
</g>
<!-- raod&#45;&gt;aod -->
<g id="edge12" class="edge"><title>raod&#45;&gt;aod</title>
<path fill="none" stroke="black" stroke-dasharray="5,2" d="M767.42,-143.876C754.202,-134.893 737.824,-123.763 723.51,-114.034"/>
<polygon fill="black" stroke="black" points="725.148,-110.916 714.91,-108.19 721.213,-116.705 725.148,-110.916"/>
</g>
</g>
</svg>

