<?xml version="1.0" encoding="UTF-8" standalone="no"?>
<!DOCTYPE svg PUBLIC "-//W3C//DTD SVG 1.1//EN"
 "http://www.w3.org/Graphics/SVG/1.1/DTD/svg11.dtd">
<!-- Generated by graphviz version 2.38.0 (20140413.2041)
 -->
<!-- Title: dgp Pages: 1 -->
<svg width="226pt" height="188pt"
 viewBox="0.00 0.00 226.47 188.00" xmlns="http://www.w3.org/2000/svg" xmlns:xlink="http://www.w3.org/1999/xlink">
<g id="graph0" class="graph" transform="scale(1 1) rotate(0) translate(4 184)">
<title>dgp</title>
<polygon fill="white" stroke="none" points="-4,4 -4,-184 222.469,-184 222.469,4 -4,4"/>
<!-- ph -->
<g id="node1" class="node"><title>ph</title>
<g id="a_node1"><a xlink:title="Remember the amount of photos is our proxy for the degree of disclosure">
<polygon fill="#ff4040" fill-opacity="0.439216" stroke="Black" points="139.566,-108 -0.189011,-108 -0.189011,-72 139.566,-72 139.566,-108"/>
<text text-anchor="middle" x="69.6885" y="-87" font-family="Helvetica,sans-Serif" font-size="10.00">Estimated change in photos</text>
</a>
</g>
</g>
<!-- win -->
<g id="node2" class="node"><title>win</title>
<polygon fill="#ff4040" fill-opacity="0.439216" stroke="Black" points="194.274,-36 63.1028,-36 63.1028,-0 194.274,-0 194.274,-36"/>
<text text-anchor="middle" x="128.689" y="-21" font-family="Helvetica,sans-Serif" font-size="10.00">Change in our winning bid</text>
<text text-anchor="middle" x="128.689" y="-9" font-family="Helvetica,sans-Serif" font-size="10.00">biddy1</text>
</g>
<!-- ph&#45;&gt;win -->
<g id="edge1" class="edge"><title>ph&#45;&gt;win</title>
<path fill="none" stroke="black" d="M84.2728,-71.6966C91.3461,-63.3046 99.9719,-53.0705 107.734,-43.8613"/>
<polygon fill="black" stroke="black" points="110.503,-46.0063 114.272,-36.1043 105.151,-41.495 110.503,-46.0063"/>
</g>
<!-- cl -->
<g id="node3" class="node"><title>cl</title>
<g id="a_node3"><a xlink:title="Remember we expect him to provide more photos on average compared to regular sellers">
<path fill="#00cdcd" fill-opacity="0.250980" stroke="Black" stroke-dasharray="5,2" d="M144.023,-180C144.023,-180 113.354,-180 113.354,-180 107.354,-180 101.354,-174 101.354,-168 101.354,-168 101.354,-156 101.354,-156 101.354,-150 107.354,-144 113.354,-144 113.354,-144 144.023,-144 144.023,-144 150.023,-144 156.023,-150 156.023,-156 156.023,-156 156.023,-168 156.023,-168 156.023,-174 150.023,-180 144.023,-180"/>
<text text-anchor="middle" x="128.689" y="-159" font-family="Helvetica,sans-Serif" font-size="10.00">car lover</text>
</a>
</g>
</g>
<!-- cl&#45;&gt;ph -->
<g id="edge2" class="edge"><title>cl&#45;&gt;ph</title>
<path fill="none" stroke="black" stroke-dasharray="5,2" d="M114.104,-143.697C107.031,-135.305 98.4051,-125.07 90.6431,-115.861"/>
<polygon fill="black" stroke="black" points="93.226,-113.495 84.105,-108.104 87.8736,-118.006 93.226,-113.495"/>
</g>
<!-- cq -->
<g id="node4" class="node"><title>cq</title>
<g id="a_node4"><a xlink:title="Options and other covariates could also be regarded as a measure of car quality, yet we leave these out for simplification">
<path fill="#00cdcd" fill-opacity="0.250980" stroke="Black" stroke-dasharray="5,2" d="M206.251,-108C206.251,-108 169.126,-108 169.126,-108 163.126,-108 157.126,-102 157.126,-96 157.126,-96 157.126,-84 157.126,-84 157.126,-78 163.126,-72 169.126,-72 169.126,-72 206.251,-72 206.251,-72 212.251,-72 218.251,-78 218.251,-84 218.251,-84 218.251,-96 218.251,-96 218.251,-102 212.251,-108 206.251,-108"/>
<text text-anchor="middle" x="187.689" y="-87" font-family="Helvetica,sans-Serif" font-size="10.00">car quality</text>
</a>
</g>
</g>
<!-- cl&#45;&gt;cq -->
<g id="edge3" class="edge"><title>cl&#45;&gt;cq</title>
<path fill="none" stroke="black" stroke-dasharray="5,2" d="M143.273,-143.697C150.346,-135.305 158.972,-125.07 166.734,-115.861"/>
<polygon fill="black" stroke="black" points="169.503,-118.006 173.272,-108.104 164.151,-113.495 169.503,-118.006"/>
</g>
<!-- cq&#45;&gt;win -->
<g id="edge4" class="edge"><title>cq&#45;&gt;win</title>
<path fill="none" stroke="black" stroke-dasharray="5,2" d="M173.104,-71.6966C166.031,-63.3046 157.405,-53.0705 149.643,-43.8613"/>
<polygon fill="black" stroke="black" points="152.226,-41.495 143.105,-36.1043 146.874,-46.0063 152.226,-41.495"/>
</g>
</g>
</svg>

