<?xml version="1.0" encoding="UTF-8" standalone="no"?>
<!DOCTYPE svg PUBLIC "-//W3C//DTD SVG 1.1//EN"
 "http://www.w3.org/Graphics/SVG/1.1/DTD/svg11.dtd">
<!-- Generated by graphviz version 2.38.0 (20140413.2041)
 -->
<!-- Title: dgp Pages: 1 -->
<svg width="775pt" height="188pt"
 viewBox="0.00 0.00 775.03 188.00" xmlns="http://www.w3.org/2000/svg" xmlns:xlink="http://www.w3.org/1999/xlink">
<g id="graph0" class="graph" transform="scale(1 1) rotate(0) translate(4 184)">
<title>dgp</title>
<polygon fill="white" stroke="none" points="-4,4 -4,-184 771.026,-184 771.026,4 -4,4"/>
<!-- oaod -->
<g id="node1" class="node"><title>oaod</title>
<g id="a_node1"><a xlink:title="Remember the amount of photos is our proxy for the degree of disclosure">
<polygon fill="#ff4040" fill-opacity="0.439216" stroke="Black" points="215.891,-108 76.1355,-108 76.1355,-72 215.891,-72 215.891,-108"/>
<text text-anchor="middle" x="146.013" y="-87" font-family="Helvetica,sans-Serif" font-size="10.00">Estimated change in photos</text>
</a>
</g>
</g>
<!-- owin -->
<g id="node2" class="node"><title>owin</title>
<polygon fill="#ff4040" fill-opacity="0.439216" stroke="Black" points="211.599,-36 80.4273,-36 80.4273,-0 211.599,-0 211.599,-36"/>
<text text-anchor="middle" x="146.013" y="-21" font-family="Helvetica,sans-Serif" font-size="10.00">Change in our winning bid</text>
<text text-anchor="middle" x="146.013" y="-9" font-family="Helvetica,sans-Serif" font-size="10.00">biddy1</text>
</g>
<!-- oaod&#45;&gt;owin -->
<g id="edge7" class="edge"><title>oaod&#45;&gt;owin</title>
<path fill="none" stroke="black" stroke-dasharray="5,2" d="M146.013,-71.6966C146.013,-63.9827 146.013,-54.7125 146.013,-46.1124"/>
<polygon fill="black" stroke="black" points="149.513,-46.1043 146.013,-36.1043 142.513,-46.1044 149.513,-46.1043"/>
</g>
<!-- aod -->
<g id="node3" class="node"><title>aod</title>
<g id="a_node3"><a xlink:title="Remember the amount of photos is our proxy for the degree of disclosure">
<polygon fill="#ff4040" fill-opacity="0.439216" stroke="Black" points="653.891,-108 514.135,-108 514.135,-72 653.891,-72 653.891,-108"/>
<text text-anchor="middle" x="584.013" y="-87" font-family="Helvetica,sans-Serif" font-size="10.00">Estimated change in photos</text>
</a>
</g>
</g>
<!-- win -->
<g id="node4" class="node"><title>win</title>
<polygon fill="#ff4040" fill-opacity="0.439216" stroke="Black" points="649.599,-36 518.427,-36 518.427,-0 649.599,-0 649.599,-36"/>
<text text-anchor="middle" x="584.013" y="-21" font-family="Helvetica,sans-Serif" font-size="10.00">Change in our winning bid</text>
<text text-anchor="middle" x="584.013" y="-9" font-family="Helvetica,sans-Serif" font-size="10.00">biddy1</text>
</g>
<!-- aod&#45;&gt;win -->
<g id="edge4" class="edge"><title>aod&#45;&gt;win</title>
<path fill="none" stroke="black" stroke-dasharray="5,2" d="M584.013,-71.6966C584.013,-63.9827 584.013,-54.7125 584.013,-46.1124"/>
<polygon fill="black" stroke="black" points="587.513,-46.1043 584.013,-36.1043 580.513,-46.1044 587.513,-46.1043"/>
</g>
<!-- ins -->
<g id="node5" class="node"><title>ins</title>
<g id="a_node5"><a xlink:title="Third&#45;party software like CarRad, eBiz, Auction123 used instead of eBay">
<polygon fill="#ff34b3" fill-opacity="0.600000" stroke="Black" points="496.849,-180 407.177,-180 407.177,-144 496.849,-144 496.849,-180"/>
<text text-anchor="middle" x="452.013" y="-159" font-family="Helvetica,sans-Serif" font-size="10.00">Utilized software</text>
</a>
</g>
</g>
<!-- ins&#45;&gt;aod -->
<g id="edge1" class="edge"><title>ins&#45;&gt;aod</title>
<path fill="none" stroke="#ff34b3" stroke-opacity="0.600000" d="M484.304,-143.876C501.882,-134.554 523.822,-122.919 542.642,-112.939"/>
<polygon fill="#ff34b3" fill-opacity="0.600000" stroke="#ff34b3" stroke-opacity="0.600000" points="544.403,-115.967 551.598,-108.19 541.124,-109.783 544.403,-115.967"/>
</g>
<!-- ot -->
<g id="node6" class="node"><title>ot</title>
<path fill="#00cdcd" fill-opacity="0.250980" stroke="Black" stroke-dasharray="5,2" d="M755.039,-180C755.039,-180 682.987,-180 682.987,-180 676.987,-180 670.987,-174 670.987,-168 670.987,-168 670.987,-156 670.987,-156 670.987,-150 676.987,-144 682.987,-144 682.987,-144 755.039,-144 755.039,-144 761.039,-144 767.039,-150 767.039,-156 767.039,-156 767.039,-168 767.039,-168 767.039,-174 761.039,-180 755.039,-180"/>
<text text-anchor="middle" x="719.013" y="-165" font-family="Helvetica,sans-Serif" font-size="10.00">Other unobserved</text>
<text text-anchor="middle" x="719.013" y="-153" font-family="Helvetica,sans-Serif" font-size="10.00">factors</text>
</g>
<!-- ot&#45;&gt;win -->
<g id="edge5" class="edge"><title>ot&#45;&gt;win</title>
<path fill="none" stroke="black" stroke-dasharray="5,2" d="M710.944,-143.795C701.404,-124.708 684.125,-93.7399 663.013,-72 651.781,-60.434 637.628,-49.9823 624.415,-41.4768"/>
<polygon fill="black" stroke="black" points="626.246,-38.494 615.908,-36.1764 622.544,-44.4352 626.246,-38.494"/>
</g>
<!-- raod -->
<g id="node7" class="node"><title>raod</title>
<path fill="#00cdcd" fill-opacity="0.250980" stroke="Black" stroke-dasharray="5,2" d="M641.309,-180C641.309,-180 526.717,-180 526.717,-180 520.717,-180 514.717,-174 514.717,-168 514.717,-168 514.717,-156 514.717,-156 514.717,-150 520.717,-144 526.717,-144 526.717,-144 641.309,-144 641.309,-144 647.309,-144 653.309,-150 653.309,-156 653.309,-156 653.309,-168 653.309,-168 653.309,-174 647.309,-180 641.309,-180"/>
<text text-anchor="middle" x="584.013" y="-159" font-family="Helvetica,sans-Serif" font-size="10.00">Degree of online Disclosure</text>
</g>
<!-- raod&#45;&gt;aod -->
<g id="edge6" class="edge"><title>raod&#45;&gt;aod</title>
<path fill="none" stroke="black" stroke-dasharray="5,2" d="M584.013,-143.697C584.013,-135.983 584.013,-126.712 584.013,-118.112"/>
<polygon fill="black" stroke="black" points="587.513,-118.104 584.013,-108.104 580.513,-118.104 587.513,-118.104"/>
</g>
<!-- oot -->
<g id="node8" class="node"><title>oot</title>
<path fill="#00cdcd" fill-opacity="0.250980" stroke="Black" stroke-dasharray="5,2" d="M84.039,-180C84.039,-180 11.987,-180 11.987,-180 5.987,-180 -0.0130035,-174 -0.0130035,-168 -0.0130035,-168 -0.0130035,-156 -0.0130035,-156 -0.0130035,-150 5.987,-144 11.987,-144 11.987,-144 84.039,-144 84.039,-144 90.039,-144 96.039,-150 96.039,-156 96.039,-156 96.039,-168 96.039,-168 96.039,-174 90.039,-180 84.039,-180"/>
<text text-anchor="middle" x="48.013" y="-165" font-family="Helvetica,sans-Serif" font-size="10.00">Other unobserved</text>
<text text-anchor="middle" x="48.013" y="-153" font-family="Helvetica,sans-Serif" font-size="10.00">factors</text>
</g>
<!-- oot&#45;&gt;oaod -->
<g id="edge10" class="edge"><title>oot&#45;&gt;oaod</title>
<path fill="none" stroke="black" stroke-dasharray="5,2" d="M71.9865,-143.876C84.5627,-134.893 100.145,-123.763 113.765,-114.034"/>
<polygon fill="black" stroke="black" points="115.844,-116.85 121.947,-108.19 111.776,-111.154 115.844,-116.85"/>
</g>
<!-- oot&#45;&gt;owin -->
<g id="edge8" class="edge"><title>oot&#45;&gt;owin</title>
<path fill="none" stroke="black" stroke-dasharray="5,2" d="M47.9552,-143.787C48.6861,-124.693 52.3102,-93.7186 67.013,-72 75.3632,-59.6654 87.6347,-49.4437 100.028,-41.377"/>
<polygon fill="black" stroke="black" points="101.883,-44.3457 108.581,-36.1372 98.2259,-38.3767 101.883,-44.3457"/>
</g>
<!-- oraod -->
<g id="node9" class="node"><title>oraod</title>
<path fill="#00cdcd" fill-opacity="0.250980" stroke="Black" stroke-dasharray="5,2" d="M240.309,-180C240.309,-180 125.717,-180 125.717,-180 119.717,-180 113.717,-174 113.717,-168 113.717,-168 113.717,-156 113.717,-156 113.717,-150 119.717,-144 125.717,-144 125.717,-144 240.309,-144 240.309,-144 246.309,-144 252.309,-150 252.309,-156 252.309,-156 252.309,-168 252.309,-168 252.309,-174 246.309,-180 240.309,-180"/>
<text text-anchor="middle" x="183.013" y="-159" font-family="Helvetica,sans-Serif" font-size="10.00">Degree of online Disclosure</text>
</g>
<!-- oraod&#45;&gt;oaod -->
<g id="edge9" class="edge"><title>oraod&#45;&gt;oaod</title>
<path fill="none" stroke="black" stroke-dasharray="5,2" d="M173.867,-143.697C169.61,-135.644 164.457,-125.894 159.747,-116.982"/>
<polygon fill="black" stroke="black" points="162.821,-115.31 155.054,-108.104 156.633,-118.581 162.821,-115.31"/>
</g>
<!-- test -->
<!-- test&#45;&gt;owin -->
<g id="edge3" class="edge"><title>test&#45;&gt;owin</title>
<path fill="none" stroke="#ffffff" stroke-opacity="0.600000" d="M311.72,-71.9656C280.854,-62.1 241.815,-49.6215 209.382,-39.255"/>
<polygon fill="#ffffff" fill-opacity="0.600000" stroke="#ffffff" stroke-opacity="0.600000" points="210.136,-35.8216 199.545,-36.1108 208.005,-42.4893 210.136,-35.8216"/>
</g>
<!-- test&#45;&gt;win -->
<g id="edge2" class="edge"><title>test&#45;&gt;win</title>
<path fill="none" stroke="#ffffff" stroke-opacity="0.600000" d="M418.306,-71.9656C449.172,-62.1 488.211,-49.6215 520.644,-39.255"/>
<polygon fill="#ffffff" fill-opacity="0.600000" stroke="#ffffff" stroke-opacity="0.600000" points="522.021,-42.4893 530.481,-36.1108 519.89,-35.8216 522.021,-42.4893"/>
</g>
</g>
</svg>

